PathFileType	4	(X/Y/Z)	Patient4_TMGait_0pt2_03_left_24.trc.trc
DataRate	CameraRate	NumFrames	NumMarkers	Units	OrigDataRate	OrigDataStartFrame	OrigNumFrames
48.780487804878	48.780487804878	4	33	mm	48.780487804878	124	       141
Frame#	Time	Sacral			L.Shoulder			Chest			R.Shoulder			Neck			R.ASIS			L.ASIS			R.Thigh.Superior			R.Thigh.Lateral			R.Thigh.Inferior			R.Patella			L.Thigh.Superior			L.Thigh.Lateral			L.Thigh.Inferior			L.Patella			L.Shank.Superior			L.Shank.Lateral			L.Shank.Inferior			R.Shank.Superior			R.Shank.Lateral			R.Shank.Inferior			R.Heel			R.Midfoot.Superior			R.Midfoot.Lateral			R.Toe			L.Heel			L.Midfoot.Lateral			L.Midfoot.Superior			L.Toe			L.Elbow			L.Wrist			R.Elbow			R.Wrist			
		X1	Y1	Z1	X2	Y2	Z2	X3	Y3	Z3	X4	Y4	Z4	X5	Y5	Z5	X6	Y6	Z6	X7	Y7	Z7	X8	Y8	Z8	X9	Y9	Z9	X10	Y10	Z10	X11	Y11	Z11	X12	Y12	Z12	X13	Y13	Z13	X14	Y14	Z14	X15	Y15	Z15	X16	Y16	Z16	X17	Y17	Z17	X18	Y18	Z18	X19	Y19	Z19	X20	Y20	Z20	X21	Y21	Z21	X22	Y22	Z22	X23	Y23	Z23	X24	Y24	Z24	X25	Y25	Z25	X26	Y26	Z26	X27	Y27	Z27	X28	Y28	Z28	X29	Y29	Z29	X30	Y30	Z30	X31	Y31	Z31	X32	Y32	Z32	X33	Y33	Z33	

124	52.671500000000	895.672394541948	1006.338151885141	571.167199208891	1019.908405841753	1422.679160991679	331.448317454919	1167.399497041919	1352.356127657288	452.007758088347	1149.298457773485	1437.327500251986	637.388697939107	1053.628287695424	1487.480503814063	482.154044012548	1144.174735952448	930.922527103644	622.825082215099	1059.614025558535	955.380305506425	361.765079157210	1152.710941219845	723.139066906943	585.653851259359	1076.733275354561	617.799774555525	661.834780938259	1126.546606963418	561.633423554835	566.427768720998	1117.194106990108	471.208081823784	574.342979983549	1134.602253648309	761.793946756819	375.977568427535	1054.373497140065	625.542813779033	314.365891679825	1169.741359150083	573.589404456239	361.850322181143	1184.910182323838	507.767058488489	360.470335981823	1168.798986236165	436.109146799221	347.254044057750	1094.961409111336	311.526048219883	294.000017980167	1179.195563351635	206.561535974762	341.771263046097	1073.514199844582	387.232254420008	587.273298185073	994.570412271397	294.721672379103	658.117038397854	1009.965672729613	196.841232071900	591.100363121692	852.031926680714	43.708898422532	573.291534947807	1024.631426037900	95.697708453358	601.443291079219	937.651754110217	36.910200716440	645.258624243439	1145.436607947626	43.756719522311	626.319339015221	1081.493130816320	39.568550919609	375.379390370186	1155.479941503314	37.840440083568	295.275235684975	1235.008490615530	104.757382954607	319.037811986697	1363.958528693645	60.347746112405	291.878668870688	835.872974588058	1116.427231313612	293.817108052207	753.957532858954	876.216419961883	363.601071858815	1382.451303501076	1205.217976612991	729.926705735858	1566.914727791356	1329.196620869993	606.241902282788	
125	52.692000000000	896.976941741224	1005.634013544699	567.262509576101	1021.821400564668	1421.343746441639	326.526940204842	1169.257953949736	1351.202678683506	447.366281207246	1150.922129725328	1436.582702138581	632.522910416973	1055.256903488056	1486.559149951606	477.153386184674	1145.676210242884	930.036825973316	619.114692718394	1060.993671121196	954.211259665357	358.144881368615	1153.913922632752	722.078412561955	582.396955501749	1077.619791023159	617.064237109392	658.878090985665	1127.229759879629	560.413383560070	563.750545629035	1117.452271047498	469.671761544772	572.096647300964	1136.344327799067	760.265045647428	373.121969297284	1055.511574970007	624.444308610845	312.404287635973	1170.545135991472	572.284144282313	360.246952030564	1184.857728289697	505.945418013682	359.214919102388	1168.472544157319	434.137223843104	346.110000418916	1093.554531464309	310.124352223862	293.333639317281	1176.280129822899	204.607370195914	342.058894207433	1072.761772719292	386.184265812309	585.326899005510	992.937306590874	294.854355609040	656.806118129823	1007.200448335531	196.394090666851	590.317203742630	848.076089408218	43.967396130980	573.282218660015	1020.695505177473	95.651247046947	601.313893271186	933.696261877691	36.999826738444	645.204909073073	1141.478513634539	43.384810679537	626.404735481704	1076.200204342799	39.322842932422	376.241537555857	1150.028588747765	37.157647514746	295.922232777991	1230.505724381394	102.707073543457	320.198397575991	1358.941971210045	56.716992724942	292.547480646876	840.191303699593	1113.575997002080	286.149630814463	760.069380901966	871.986397278000	353.254029897078	1385.036603701906	1205.956932101444	724.726051329510	1564.383093047142	1334.505452083005	598.482635381226	
126	52.712500000000	898.213786232247	1005.221348354362	563.205257952934	1023.888991146877	1420.259067753352	321.529802615857	1171.237981860426	1350.173641520630	442.619607207902	1152.760583979306	1435.940177838269	627.575231560166	1057.051263433641	1485.828504718975	472.077910844666	1147.006426768744	929.266678384340	615.137955593871	1062.233844508903	953.337116038742	354.256552767539	1154.765323854698	721.096880342118	578.951142944820	1078.150381790209	616.484524450413	655.818674804435	1127.483849437370	559.312085103810	560.955109637434	1117.303591501284	468.322470738855	569.766511391526	1138.195614291619	759.433915957729	370.266646757826	1057.272633383776	623.847764895076	310.097065004982	1171.867559882348	571.533103002161	358.514089333057	1185.518729836244	504.611952319060	357.791799351892	1168.730601308253	432.566961205708	344.848311833462	1092.677209943969	309.179501634405	292.300793187399	1173.637469346580	202.972536636947	342.174532561983	1071.691112748547	385.315948910173	583.339557462803	991.062949160985	295.111350306236	655.458084334272	1004.334118325943	196.080676723440	589.511763203552	844.123891674779	44.277635455741	573.267996648536	1016.796148946302	95.645364839642	601.182587374633	929.752748600391	37.130520313468	645.121527407739	1137.525801151097	43.029549875221	626.482071757837	1071.115976167280	39.112203477730	376.844651688434	1144.822661937272	36.634512583623	296.333017302120	1226.089549124628	101.071606705460	321.091017405277	1354.161758606635	53.835775534032	292.986244670314	844.885370050101	1110.903937787605	277.956115354800	767.142027019165	867.711195804114	342.020290830253	1387.332118722370	1206.232201797169	719.748701760143	1562.399642974759	1338.349987901836	591.302524461060	
127	52.733000000000	899.378867856685	1005.154699848480	558.942666301860	1026.066510739517	1419.510715485154	316.510438321416	1173.295614857074	1349.353784843835	437.813134776275	1154.755074102835	1435.456734960916	622.601611044971	1058.964218148200	1485.352211077946	467.001301993443	1148.125633801753	928.682080054929	610.927468343697	1063.394827640441	952.796438123285	350.097462307749	1155.117107255820	720.241401486059	575.389630645997	1078.130075710246	616.146402145278	652.738100936572	1127.106676645392	558.391764162846	558.138242233393	1116.530563239157	467.250332124960	567.451700934216	1140.087807931179	759.263310782819	367.355976753503	1059.438956028111	623.684225787662	307.454500479870	1173.519603536749	571.244047727588	356.564056663714	1186.670679027855	503.720316540364	356.179592389804	1169.386067512779	431.383176332277	343.457664928967	1092.206187708376	308.643969492400	290.935409801424	1171.231625608177	201.679355521131	342.109441457552	1070.140829432235	384.706536118298	581.394033847957	988.815344227934	295.525297925664	654.119594851203	1001.298156038211	195.949709562469	588.721327657532	840.167023224367	44.671923085737	573.249986028364	1012.928059936834	95.687962422875	601.059303206612	925.811040565198	37.326764708169	645.016711021560	1133.568298208108	42.694437958804	626.551289845019	1066.346538486564	38.935707462914	377.187363074821	1139.969930267733	36.266724893779	296.520923932900	1221.828194795888	99.876448238326	321.702922049518	1349.682511662739	51.765347626317	293.220390869686	849.845766668366	1108.568663741759	269.324432992523	775.120063213563	863.580613573190	330.054814928097	1389.365389040687	1206.155387356613	714.941201854970	1561.164881239869	1340.799126620694	584.681098093364	
